<?xml version="1.0" encoding="UTF-8"?>
<svg id="Ebene_2" xmlns="http://www.w3.org/2000/svg" viewBox="0 0 1440 1000">
  <defs>
    <style>
      .cls-1 {
        fill: #fff;
      }

      .cls-2 {
        fill: #22b573;
      }

      .cls-3 {
        fill: #111c17;
      }

      .cls-4 {
        fill: #e6e6e6;
        font-family: SourceCodeProRoman-SemiBold, 'Source Code Pro';
        font-size: 35.1px;
        font-variation-settings: 'wght' 600;
        font-weight: 600;
      }
    </style>
  </defs>
  <g id="Ebene_1-2" data-name="Ebene_1">
    <g>
      <rect class="cls-3" width="1440" height="1000"/>
      <g>
        <rect class="cls-2" x="539" y="319" width="362" height="362" rx="48.26" ry="48.26"/>
        <path class="cls-1" d="M606.14,439.32c-6.35,0-12.11-1.29-17.27-3.87-5.16-2.58-9.27-6.33-12.32-11.24-3.05-4.91-4.57-10.79-4.57-17.65s1.52-12.59,4.57-17.46c3.05-4.87,7.02-8.61,11.94-11.24,4.91-2.62,10.16-3.94,15.75-3.94,6.18,0,11.41,1.27,15.68,3.81,4.27,2.54,7.53,6.03,9.78,10.48,2.24,4.44,3.36,9.54,3.36,15.3,0,1.44-.04,2.84-.13,4.19-.09,1.35-.21,2.41-.38,3.17h-50.03v-10.29h40.51l-2.79,3.17c0-6.18-1.38-10.83-4.13-13.97-2.75-3.13-6.58-4.7-11.49-4.7-3.47,0-6.58.83-9.33,2.48-2.75,1.65-4.93,4.06-6.54,7.24-1.61,3.17-2.41,7.05-2.41,11.62,0,4.91.91,8.95,2.73,12.13,1.82,3.17,4.36,5.55,7.62,7.11,3.26,1.57,7.05,2.35,11.36,2.35,3.3,0,6.35-.46,9.14-1.4,2.79-.93,5.59-2.2,8.38-3.81l4.95,9.14c-3.3,2.12-7.05,3.87-11.24,5.27-4.19,1.4-8.57,2.1-13.14,2.1Z"/>
        <path class="cls-1" d="M670.26,439.32c-4.06,0-7.66-.78-10.79-2.35-3.13-1.57-5.59-3.7-7.36-6.41-1.78-2.71-2.67-5.88-2.67-9.52,0-6.94,3.32-12.25,9.97-15.94,6.64-3.68,17.67-6.07,33.08-7.17-.17-2.29-.78-4.36-1.84-6.22-1.06-1.86-2.65-3.32-4.76-4.38-2.12-1.06-4.87-1.59-8.25-1.59-2.37,0-4.7.3-6.98.89-2.29.59-4.55,1.4-6.79,2.41-2.24,1.02-4.47,2.12-6.67,3.3l-5.33-9.78c2.54-1.52,5.33-2.94,8.38-4.25,3.05-1.31,6.26-2.37,9.65-3.17,3.38-.8,6.86-1.21,10.41-1.21,5.84,0,10.73,1.04,14.67,3.11,3.94,2.08,6.94,5.12,9.02,9.14,2.07,4.02,3.11,8.91,3.11,14.67v36.95h-11.94l-1.14-7.75h-.38c-3.3,2.54-6.96,4.72-10.98,6.54-4.02,1.82-8.15,2.73-12.38,2.73ZM674.7,427.89c3.13,0,6.16-.7,9.08-2.09,2.92-1.4,5.82-3.24,8.7-5.52v-13.21c-7.45.51-13.29,1.33-17.52,2.48-4.23,1.14-7.2,2.6-8.89,4.38-1.69,1.78-2.54,3.77-2.54,5.97,0,1.86.51,3.39,1.52,4.57,1.02,1.19,2.35,2.05,4,2.6,1.65.55,3.53.83,5.65.83Z"/>
        <path class="cls-1" d="M755.08,439.32c-5.84,0-11.43-.95-16.76-2.86-5.33-1.9-9.95-4.17-13.84-6.79l6.35-9.27c3.72,2.46,7.75,4.38,12.06,5.78,4.32,1.4,9.01,2.1,14.09,2.1,4.32,0,7.51-.74,9.59-2.22,2.07-1.48,3.11-3.24,3.11-5.27,0-1.02-.23-1.95-.7-2.79-.47-.85-1.29-1.63-2.48-2.35-1.19-.72-2.92-1.42-5.21-2.1-2.29-.68-5.25-1.4-8.89-2.16-8.3-1.78-14.39-4.19-18.29-7.24-3.89-3.05-5.84-6.9-5.84-11.56,0-5.5,2.39-9.99,7.17-13.46,4.78-3.47,11.53-5.21,20.25-5.21,5.16,0,10.01.85,14.54,2.54,4.53,1.69,8.36,3.6,11.49,5.71l-6.73,9.02c-2.96-2.03-6.22-3.58-9.78-4.63-3.56-1.06-7.15-1.59-10.79-1.59-2.79,0-5.02.3-6.67.89-1.65.59-2.88,1.42-3.68,2.48-.81,1.06-1.21,2.22-1.21,3.49,0,2.2,1.27,3.85,3.81,4.95,2.54,1.1,6.69,2.29,12.44,3.56,6.69,1.44,11.85,3.07,15.49,4.89,3.64,1.82,6.16,3.89,7.55,6.22,1.4,2.33,2.09,5.19,2.09,8.57,0,3.56-1.12,6.79-3.36,9.71-2.24,2.92-5.52,5.25-9.84,6.98-4.32,1.73-9.65,2.6-16,2.6Z"/>
        <g>
          <path class="cls-1" d="M571.98,566.8v-62.35h11.3l1.14,8h.25c1.44-2.79,3.22-5.08,5.33-6.86,2.11-1.78,4.95-2.67,8.51-2.67,2.96,0,5.4.89,7.3,2.67,1.9,1.78,3.28,4.4,4.13,7.87,1.44-3.13,3.28-5.67,5.52-7.62,2.24-1.95,5.14-2.92,8.7-2.92,4.4,0,7.81,1.71,10.22,5.14,2.41,3.43,3.62,8.28,3.62,14.54v44.19h-14.22v-43.17c0-5.5-1.61-8.25-4.83-8.25-1.69,0-3.11.63-4.25,1.9-1.14,1.27-2.35,3.26-3.62,5.97v43.55h-12.06v-43.17c0-2.71-.4-4.76-1.21-6.16-.81-1.4-2.1-2.1-3.87-2.1-1.61,0-3.01.63-4.19,1.9-1.19,1.27-2.37,3.26-3.56,5.97v43.55h-14.22Z"/>
          <path class="cls-1" d="M672.16,568.32c-4.06,0-7.66-.78-10.79-2.35-3.13-1.57-5.59-3.7-7.36-6.41-1.78-2.71-2.67-5.88-2.67-9.52,0-6.94,3.32-12.25,9.97-15.94,6.64-3.68,17.67-6.07,33.08-7.17-.17-2.29-.78-4.36-1.84-6.22-1.06-1.86-2.65-3.32-4.76-4.38-2.12-1.06-4.87-1.59-8.25-1.59-2.37,0-4.7.3-6.98.89-2.29.59-4.55,1.4-6.79,2.41-2.24,1.02-4.47,2.12-6.67,3.3l-5.33-9.78c2.54-1.52,5.33-2.94,8.38-4.25,3.05-1.31,6.26-2.37,9.65-3.17,3.38-.8,6.86-1.21,10.41-1.21,5.84,0,10.73,1.04,14.67,3.11,3.94,2.08,6.94,5.12,9.02,9.14,2.07,4.02,3.11,8.91,3.11,14.67v36.95h-11.94l-1.14-7.75h-.38c-3.3,2.54-6.96,4.72-10.98,6.54-4.02,1.82-8.15,2.73-12.38,2.73ZM676.61,556.89c3.13,0,6.16-.7,9.08-2.09,2.92-1.4,5.82-3.24,8.7-5.52v-13.21c-7.45.51-13.29,1.33-17.52,2.48-4.23,1.14-7.2,2.6-8.89,4.38-1.69,1.78-2.54,3.77-2.54,5.97,0,1.86.51,3.39,1.52,4.57,1.02,1.19,2.35,2.05,4,2.6,1.65.55,3.53.83,5.65.83Z"/>
          <path class="cls-1" d="M768.16,568.32c-6.35,0-11.39-1.12-15.11-3.37-3.73-2.24-6.39-5.35-8-9.33-1.61-3.98-2.41-8.59-2.41-13.84v-25.65h-16.51v-10.92l17.02-.76,2.03-19.55h11.94v19.55h28.57v11.68h-28.57v25.52c0,3.39.46,6.2,1.4,8.44.93,2.24,2.48,3.89,4.63,4.95,2.16,1.06,4.97,1.59,8.44,1.59,2.71,0,5.16-.21,7.36-.63,2.2-.42,4.27-1.02,6.22-1.78l3.05,10.54c-2.79.93-5.82,1.76-9.08,2.48-3.26.72-6.92,1.08-10.98,1.08Z"/>
          <path class="cls-1" d="M805.1,566.8v-89.65h14.73v23.11l-.89,13.33h.38c2.71-2.88,5.86-5.37,9.46-7.49,3.6-2.12,7.77-3.17,12.51-3.17,7.19,0,12.48,2.2,15.87,6.6,3.38,4.4,5.08,10.62,5.08,18.67v38.6h-14.73v-36.7c0-4.99-.89-8.68-2.67-11.05-1.78-2.37-4.78-3.56-9.01-3.56-3.05,0-5.76.72-8.13,2.16-2.37,1.44-5,3.64-7.87,6.6v42.54h-14.73Z"/>
        </g>
        <text class="cls-4" transform="translate(589.85 629.07)"><tspan x="0" y="0">version 024.1</tspan></text>
        <path class="cls-1" d="M864.02,375.45l-26.03,65.14c-1.7,4.65-3.77,8.7-6.22,12.13-2.46,3.43-5.42,6.07-8.89,7.93-3.47,1.86-7.7,2.8-12.7,2.8-.3,0-.6,0-.89-.01h0c-128.26-6.54-237.31,24.5-237.31,24.5l-.43-30.94c63-1,237.74-5.36,237.74-5.36,3.98,0,7.16-1.02,9.53-3.05,2.37-2.03,4.19-4.57,5.46-7.62l1.52-3.93-27.93-61.59h14.6l12.82,30.6c1.1,2.8,2.24,5.76,3.43,8.89,1.18,3.13,2.33,6.27,3.43,9.4h.51c1.01-2.96,2.05-6.03,3.11-9.21,1.06-3.17,2.09-6.2,3.11-9.08l11.3-30.6h13.84Z"/>
      </g>
    </g>
  </g>
</svg>